<svg xmlns="http://www.w3.org/2000/svg" version="1.1" xmlns:xlink="http://www.w3.org/1999/xlink" xmlns:svgjs="http://svgjs.com/svgjs" width="45" height="39"><svg width="45" height="39" viewBox="0 0 45 39" fill="none" xmlns="http://www.w3.org/2000/svg">
<path d="M26.0625 11.3906L25.3828 13.0781H19.6172L18.9375 11.3906L26.0625 11.3906ZM27.375 8.01562L26.7188 9.70312L18.3047 9.70312L17.5781 8.01562L27.375 8.01562ZM28.6875 4.64062L28.0313 6.32812L16.9688 6.32812L16.2656 4.64062L28.6875 4.64062ZM42.3984 0H44.2266L28.875 38.8125H27.0469L11.7188 0H13.5234L27.9609 36.5391L42.3984 0ZM27.75 32.5312L26.7891 30.375L38.7891 0H40.5938L27.75 32.5312ZM25.875 28.0781L24.9844 25.7578L35.1328 0H36.9609L25.875 28.0781ZM24.0938 23.4375L23.2031 21.0703L31.5234 0H33.3281L24.0938 23.4375ZM0.820313 0H2.64844L17.9766 38.8125H16.1719L0.820313 0ZM19.8047 38.8125L4.45313 0L6.25781 0L21.6094 38.8125H19.8047ZM23.4375 38.8125L8.08594 0H9.91406L25.2422 38.8125H23.4375Z" fill="#3C1053"></path>
</svg><style>@media (prefers-color-scheme: light) { :root { filter: none; } }
</style></svg>